Format : AVI
Format/Info : Audio Video Interleave
File size : 946 MiB
Duration : 1h 32mn
Overall bit rate : 1 427 Kbps
Writing library : VirtualDub build 32842/release

Video
ID : 0
Format : MPEG-4 Visual
Format profile : Advanced Simple@L5
Format settings, BVOP : 2
Format settings, QPel : No
Format settings, GMC : No warppoints
Format settings, Matrix : Default (H.263)
Muxing mode : Packed bitstream
Codec ID : XVID
Codec ID/Hint : XviD
Duration : 1h 32mn
Bit rate : 1 289 Kbps
Width : 672 pixels
Height : 342 pixels
Display aspect ratio : 1.965
Frame rate : 25.000 fps
Color space : YUV
Chroma subsampling : 4:2:0
Bit depth : 8 bits
Scan type : Progressive
Compression mode : Lossy
Bits/(Pixel*Frame) : 0.224
Stream size : 855 MiB (90%)
Writing library : XviD 64

Audio
ID : 1
Format : MPEG Audio
Format version : Version 1
Format profile : Layer 3
Mode : Joint stereo
Codec ID : 55
Codec ID/Hint : MP3
Duration : 1h 32mn
Bit rate mode : Constant
Bit rate : 128 Kbps
Channel(s) : 2 channels
Sampling rate : 44.1 KHz
Compression mode : Lossy
Stream size : 84.8 MiB (9%)
Alignment : Split accross interleaves
Interleave, duration : 40 ms (1.00 video frame)
Interleave, preload duration : 500 ms
Writing library : LAME3.98r
Encoding settings : -m j -V 4 -q 2 -lowpass 17 -b 128






 
http://www.imdb.com/title/tt0472181/









When the evil wizard Gargamel chases the tiny blue Smurfs out of their village, they tumble from their magical world and into ours.

Cast
Cast overview, first billed only:
Hank Azaria Gargamel
Neil Patrick Harris Patrick Winslow
Jayma Mays Grace Winslow























Source Used


VIDEO: ........... Die.Schluempfe.TS.MD.German.XviD-FLOPPYDiSK ...IMAGiNE ..... Thanks



AUDIO: ........... IMAGiNE ...................................................Thanks



Resizes,smoothened ,added asaturation ,conrast ,levels filter



Enjoy





Greetz to IMAGiNE,Flawl3ss,DiLLoN,BDK,NOiR,TOXiC,THC,Ez,Rx,Boobyblue,TaRiQ786
